<svg xmlns="http://www.w3.org/2000/svg" viewBox="0 0 180 180" width="180" height="180">
  <!-- Background -->
  <rect width="180" height="180" fill="#2c3e50"/>

  <!-- Territory blob (organic irregular shape like starting land) -->
  <path d="M90,25
           C122,25 145,42 152,65
           C158,88 155,115 141,136
           C127,153 110,160 90,160
           C70,160 53,153 39,136
           C25,115 22,88 28,65
           C35,42 58,25 90,25 Z"
        fill="#3b82f6"
        stroke="#93c5fd"
        stroke-width="2.5"/>

  <!-- Inner territory shading -->
  <path d="M90,42
           C112,42 130,52 136,70
           C141,88 138,108 128,124
           C118,137 106,143 90,143
           C74,143 62,137 52,124
           C42,108 39,88 44,70
           C50,52 68,42 90,42 Z"
        fill="#2c3e50"
        opacity="0.25"/>

  <!-- Player hexagon in center -->
  <polygon points="90,66 106,76 106,98 90,108 74,98 74,76"
           fill="#93c5fd"
           stroke="#ffffff"
           stroke-width="2"/>

  <!-- Player inner detail -->
  <polygon points="90,73 100,80 100,94 90,101 80,94 80,80"
           fill="#3b82f6"/>
</svg>
