<svg xmlns="http://www.w3.org/2000/svg" viewBox="0 0 192 192" width="192" height="192">
  <!-- Background -->
  <rect width="192" height="192" fill="#2c3e50"/>

  <!-- Territory blob (organic irregular shape like starting land) -->
  <path d="M96,28
           C130,28 155,45 162,70
           C168,95 165,125 150,148
           C135,165 115,172 96,172
           C75,172 55,165 42,148
           C27,125 24,95 30,70
           C37,45 62,28 96,28 Z"
        fill="#3b82f6"
        stroke="#93c5fd"
        stroke-width="3"/>

  <!-- Inner territory shading -->
  <path d="M96,45
           C120,45 140,58 145,78
           C150,98 147,120 136,138
           C125,152 112,158 96,158
           C80,158 67,152 56,138
           C45,120 42,98 47,78
           C52,58 72,45 96,45 Z"
        fill="#2c3e50"
        opacity="0.25"/>

  <!-- Player hexagon in center -->
  <polygon points="96,70 114,82 114,106 96,118 78,106 78,82"
           fill="#93c5fd"
           stroke="#ffffff"
           stroke-width="2"/>

  <!-- Player inner detail -->
  <polygon points="96,78 106,86 106,102 96,110 86,102 86,86"
           fill="#3b82f6"/>
</svg>
